<mxfile host="app.diagrams.net" modified="2021-04-10T10:25:48.803Z" agent="5.0 (Macintosh; Intel Mac OS X 11_2_1) AppleWebKit/537.36 (KHTML, like Gecko) Chrome/88.0.4324.182 Safari/537.36 Edg/88.0.705.74" etag="laeHtpyrHRDzCEhDHt6N" version="14.5.8" type="github">
  <diagram id="g1YUPg7jPCHq16Pzp_bL" name="第 1 页">
    <mxGraphModel dx="818" dy="494" grid="0" gridSize="10" guides="1" tooltips="1" connect="1" arrows="1" fold="1" page="1" pageScale="1" pageWidth="9999900" pageHeight="9999900" math="0" shadow="0">
      <root>
        <mxCell id="0" />
        <mxCell id="1" parent="0" />
        <mxCell id="QcJ2EZMRZp2u6-ZH14Eh-1" value="" style="rounded=0;whiteSpace=wrap;html=1;" vertex="1" parent="1">
          <mxGeometry x="1680" y="840" width="120" height="120" as="geometry" />
        </mxCell>
        <mxCell id="QcJ2EZMRZp2u6-ZH14Eh-2" value="" style="endArrow=none;html=1;exitX=0;exitY=0.333;exitDx=0;exitDy=0;exitPerimeter=0;" edge="1" parent="1" source="QcJ2EZMRZp2u6-ZH14Eh-1">
          <mxGeometry width="50" height="50" relative="1" as="geometry">
            <mxPoint x="1830" y="910" as="sourcePoint" />
            <mxPoint x="1800" y="880" as="targetPoint" />
          </mxGeometry>
        </mxCell>
        <mxCell id="QcJ2EZMRZp2u6-ZH14Eh-3" value="" style="endArrow=none;html=1;exitX=0;exitY=0.333;exitDx=0;exitDy=0;exitPerimeter=0;" edge="1" parent="1">
          <mxGeometry width="50" height="50" relative="1" as="geometry">
            <mxPoint x="1680" y="920" as="sourcePoint" />
            <mxPoint x="1800" y="920.04" as="targetPoint" />
          </mxGeometry>
        </mxCell>
        <mxCell id="QcJ2EZMRZp2u6-ZH14Eh-4" value="+start()&lt;br&gt;+stop()" style="text;html=1;strokeColor=none;fillColor=none;align=center;verticalAlign=middle;whiteSpace=wrap;rounded=0;fontSize=16;" vertex="1" parent="1">
          <mxGeometry x="1690" y="920" width="90" height="40" as="geometry" />
        </mxCell>
        <mxCell id="QcJ2EZMRZp2u6-ZH14Eh-5" value="Connector" style="text;html=1;strokeColor=none;fillColor=none;align=center;verticalAlign=middle;whiteSpace=wrap;rounded=0;fontSize=16;" vertex="1" parent="1">
          <mxGeometry x="1710" y="840" width="60" height="40" as="geometry" />
        </mxCell>
        <mxCell id="QcJ2EZMRZp2u6-ZH14Eh-11" value="" style="edgeStyle=orthogonalEdgeStyle;rounded=0;orthogonalLoop=1;jettySize=auto;html=1;entryX=1;entryY=0.5;entryDx=0;entryDy=0;" edge="1" parent="1" source="QcJ2EZMRZp2u6-ZH14Eh-6" target="QcJ2EZMRZp2u6-ZH14Eh-1">
          <mxGeometry relative="1" as="geometry" />
        </mxCell>
        <mxCell id="QcJ2EZMRZp2u6-ZH14Eh-6" value="" style="rounded=0;whiteSpace=wrap;html=1;" vertex="1" parent="1">
          <mxGeometry x="1880" y="840" width="120" height="120" as="geometry" />
        </mxCell>
        <mxCell id="QcJ2EZMRZp2u6-ZH14Eh-7" value="" style="endArrow=none;html=1;exitX=0;exitY=0.333;exitDx=0;exitDy=0;exitPerimeter=0;" edge="1" parent="1" source="QcJ2EZMRZp2u6-ZH14Eh-6">
          <mxGeometry width="50" height="50" relative="1" as="geometry">
            <mxPoint x="2030" y="910" as="sourcePoint" />
            <mxPoint x="2000" y="880" as="targetPoint" />
          </mxGeometry>
        </mxCell>
        <mxCell id="QcJ2EZMRZp2u6-ZH14Eh-8" value="" style="endArrow=none;html=1;exitX=0;exitY=0.333;exitDx=0;exitDy=0;exitPerimeter=0;" edge="1" parent="1">
          <mxGeometry width="50" height="50" relative="1" as="geometry">
            <mxPoint x="1880" y="920" as="sourcePoint" />
            <mxPoint x="2000" y="920.04" as="targetPoint" />
          </mxGeometry>
        </mxCell>
        <mxCell id="QcJ2EZMRZp2u6-ZH14Eh-9" value="+start()&lt;br&gt;+stop()" style="text;html=1;strokeColor=none;fillColor=none;align=center;verticalAlign=middle;whiteSpace=wrap;rounded=0;fontSize=16;" vertex="1" parent="1">
          <mxGeometry x="1890" y="920" width="90" height="40" as="geometry" />
        </mxCell>
        <mxCell id="QcJ2EZMRZp2u6-ZH14Eh-10" value="ProtocolHandler" style="text;html=1;strokeColor=none;fillColor=none;align=center;verticalAlign=middle;whiteSpace=wrap;rounded=0;fontSize=16;" vertex="1" parent="1">
          <mxGeometry x="1910" y="840" width="60" height="40" as="geometry" />
        </mxCell>
        <mxCell id="QcJ2EZMRZp2u6-ZH14Eh-22" style="edgeStyle=orthogonalEdgeStyle;rounded=0;orthogonalLoop=1;jettySize=auto;html=1;entryX=0.187;entryY=1.012;entryDx=0;entryDy=0;entryPerimeter=0;" edge="1" parent="1" source="QcJ2EZMRZp2u6-ZH14Eh-12" target="QcJ2EZMRZp2u6-ZH14Eh-9">
          <mxGeometry relative="1" as="geometry">
            <Array as="points">
              <mxPoint x="1820" y="1000" />
              <mxPoint x="1907" y="1000" />
            </Array>
          </mxGeometry>
        </mxCell>
        <mxCell id="QcJ2EZMRZp2u6-ZH14Eh-12" value="" style="rounded=0;whiteSpace=wrap;html=1;" vertex="1" parent="1">
          <mxGeometry x="1760" y="1040" width="120" height="120" as="geometry" />
        </mxCell>
        <mxCell id="QcJ2EZMRZp2u6-ZH14Eh-13" value="" style="endArrow=none;html=1;exitX=0;exitY=0.333;exitDx=0;exitDy=0;exitPerimeter=0;" edge="1" parent="1" source="QcJ2EZMRZp2u6-ZH14Eh-12">
          <mxGeometry width="50" height="50" relative="1" as="geometry">
            <mxPoint x="1910" y="1110" as="sourcePoint" />
            <mxPoint x="1880" y="1080" as="targetPoint" />
          </mxGeometry>
        </mxCell>
        <mxCell id="QcJ2EZMRZp2u6-ZH14Eh-14" value="" style="endArrow=none;html=1;exitX=0;exitY=0.333;exitDx=0;exitDy=0;exitPerimeter=0;" edge="1" parent="1">
          <mxGeometry width="50" height="50" relative="1" as="geometry">
            <mxPoint x="1760" y="1120" as="sourcePoint" />
            <mxPoint x="1880" y="1120.04" as="targetPoint" />
          </mxGeometry>
        </mxCell>
        <mxCell id="QcJ2EZMRZp2u6-ZH14Eh-16" value="AbstracEndpoint" style="text;html=1;strokeColor=none;fillColor=none;align=center;verticalAlign=middle;whiteSpace=wrap;rounded=0;fontSize=16;" vertex="1" parent="1">
          <mxGeometry x="1790" y="1040" width="60" height="40" as="geometry" />
        </mxCell>
        <mxCell id="QcJ2EZMRZp2u6-ZH14Eh-17" value="" style="rounded=0;whiteSpace=wrap;html=1;" vertex="1" parent="1">
          <mxGeometry x="2000" y="1040" width="120" height="120" as="geometry" />
        </mxCell>
        <mxCell id="QcJ2EZMRZp2u6-ZH14Eh-18" value="" style="endArrow=none;html=1;exitX=0;exitY=0.333;exitDx=0;exitDy=0;exitPerimeter=0;" edge="1" parent="1" source="QcJ2EZMRZp2u6-ZH14Eh-17">
          <mxGeometry width="50" height="50" relative="1" as="geometry">
            <mxPoint x="2150" y="1110" as="sourcePoint" />
            <mxPoint x="2120" y="1080" as="targetPoint" />
          </mxGeometry>
        </mxCell>
        <mxCell id="QcJ2EZMRZp2u6-ZH14Eh-19" value="" style="endArrow=none;html=1;exitX=0;exitY=0.333;exitDx=0;exitDy=0;exitPerimeter=0;" edge="1" parent="1">
          <mxGeometry width="50" height="50" relative="1" as="geometry">
            <mxPoint x="2000" y="1120" as="sourcePoint" />
            <mxPoint x="2120" y="1120.04" as="targetPoint" />
          </mxGeometry>
        </mxCell>
        <mxCell id="QcJ2EZMRZp2u6-ZH14Eh-21" value="Processor" style="text;html=1;strokeColor=none;fillColor=none;align=center;verticalAlign=middle;whiteSpace=wrap;rounded=0;fontSize=16;" vertex="1" parent="1">
          <mxGeometry x="2030" y="1040" width="60" height="40" as="geometry" />
        </mxCell>
        <mxCell id="QcJ2EZMRZp2u6-ZH14Eh-23" value="" style="endArrow=classic;html=1;entryX=0.5;entryY=0;entryDx=0;entryDy=0;exitX=0.75;exitY=1;exitDx=0;exitDy=0;dashed=1;" edge="1" parent="1" source="QcJ2EZMRZp2u6-ZH14Eh-9" target="QcJ2EZMRZp2u6-ZH14Eh-21">
          <mxGeometry width="50" height="50" relative="1" as="geometry">
            <mxPoint x="2020" y="1030" as="sourcePoint" />
            <mxPoint x="2070" y="980" as="targetPoint" />
            <Array as="points">
              <mxPoint x="1958" y="1000" />
              <mxPoint x="2060" y="1000" />
            </Array>
          </mxGeometry>
        </mxCell>
        <mxCell id="QcJ2EZMRZp2u6-ZH14Eh-25" value="链接器设计" style="text;html=1;strokeColor=none;fillColor=none;align=center;verticalAlign=middle;whiteSpace=wrap;rounded=0;fontSize=16;" vertex="1" parent="1">
          <mxGeometry x="1880" y="1190" width="110" height="30" as="geometry" />
        </mxCell>
      </root>
    </mxGraphModel>
  </diagram>
</mxfile>
